<?xml version="1.0" standalone="no"?>
<!DOCTYPE svg PUBLIC "-//W3C//DTD SVG 20010904//EN"
 "http://www.w3.org/TR/2001/REC-SVG-20010904/DTD/svg10.dtd">
<svg version="1.0" xmlns="http://www.w3.org/2000/svg"
 width="157.000000pt" height="157.000000pt" viewBox="0 0 157.000000 157.000000"
 preserveAspectRatio="xMidYMid meet">
<metadata>
Created by potrace 1.14, written by Peter Selinger 2001-2017
</metadata>
<g transform="translate(0.000000,157.000000) scale(0.100000,-0.100000)"
fill="#000000" stroke="none">
<path d="M650 1268 c-204 -64 -342 -245 -354 -465 -3 -61 -5 -65 -61 -125 -96
-103 -120 -186 -69 -233 15 -14 39 -26 53 -26 14 -1 37 -2 51 -3 14 -1 41 2
60 7 71 15 120 19 120 9 0 -16 115 -89 178 -112 75 -28 206 -35 286 -15 190
49 342 210 372 396 9 57 9 134 0 180 -7 33 -4 40 47 100 83 98 103 150 77 200
-27 49 -125 58 -248 24 l-59 -17 -54 31 c-88 49 -137 63 -239 66 -74 3 -109
-1 -160 -17z m265 -58 c41 -14 43 -20 13 -47 -48 -43 -127 -34 -153 18 -9 16
-13 33 -11 38 8 12 106 6 151 -9z m-171 -90 c36 -36 70 -48 129 -45 52 2 86
21 118 65 l22 29 31 -21 c95 -67 176 -190 144 -221 -40 -39 -92 -71 -96 -59
-11 35 -101 56 -156 37 -74 -26 -116 -92 -109 -169 l5 -43 -144 -71 c-135 -66
-169 -82 -193 -88 -5 -1 -18 -5 -27 -9 -12 -5 -24 4 -44 36 -148 235 -33 550
235 644 36 12 36 12 46 -22 6 -19 23 -48 39 -63z m608 32 c14 -14 -13 -69 -57
-120 l-38 -44 -26 46 c-15 25 -37 57 -49 71 -12 14 -22 27 -22 29 0 4 77 25
110 29 37 4 71 0 82 -11z m-122 -355 c-1 -118 -39 -220 -113 -300 -69 -74
-147 -118 -147 -84 0 23 -61 76 -100 88 -76 23 -156 -16 -189 -93 l-16 -38
-54 25 c-29 14 -67 36 -83 50 -26 22 -28 26 -11 31 54 17 131 52 238 108 l121
63 28 -21 c40 -30 120 -28 165 3 39 28 74 99 69 142 -2 24 4 36 37 63 22 19
43 32 48 29 4 -2 7 -32 7 -66z m-195 37 c60 -40 46 -137 -25 -160 -80 -26
-145 51 -109 130 20 44 89 60 134 30z m-719 -182 c-3 -5 11 -39 29 -78 39 -79
39 -80 23 -82 -93 -14 -145 -13 -158 3 -12 14 -11 21 5 51 23 43 83 114 96
114 6 0 8 -4 5 -8z m550 -216 c27 -8 52 -52 37 -67 -13 -13 -162 -19 -170 -6
-14 24 65 91 97 83 8 -3 24 -7 36 -10z"/>
<path d="M527 1059 c-27 -16 -48 -65 -41 -96 27 -114 184 -95 184 22 0 39 -50
85 -92 85 -18 0 -41 -5 -51 -11z m72 -63 c15 -18 4 -46 -18 -46 -27 0 -42 20
-30 42 12 21 32 23 48 4z"/>
</g>
</svg>
